<?xml version="1.0" encoding="utf-8"?>
<!-- Generator: Adobe Illustrator 19.0.0, SVG Export Plug-In . SVG Version: 6.00 Build 0)  -->
<svg version="1.1" id="Neighborhood_Map_Outlines" xmlns="http://www.w3.org/2000/svg" xmlns:xlink="http://www.w3.org/1999/xlink"
	 x="0px" y="0px" viewBox="496 -414 2000 1500" style="enable-background:new 496 -414 2000 1500;" xml:space="preserve">
<style type="text/css">
	.st0{font-family:'ArialMT';}
	.st1{font-size:12px;}
	.st2{fill:#FFFFFF;}
	.st3{font-family:'MyriadPro-Regular';}
	.st4{font-size:20px;}
                                                      </style>
<title>Neighborhood Map</title>
<rect id="a2137" x="1053.8" y="596.5" width="78.8" height="142.8"/>
<rect id="a2143" x="970.3" y="596.5" width="77.5" height="142.8"/>
<rect id="a2131" x="1138.5" y="596.5" width="73.5" height="142.8"/>
<path id="a2066" d="M1655.7,251.2l61.8-43.2l-89.2-123.7l-61.7,43.3L1655.7,251.2z"/>
<path id="a2138" d="M1212,590.5v-1.1l51.7-36.4l-100.8-143.4c-15,8.9-30.8,16.3-47.3,22l53.5,158.9L1212,590.5z"/>
<path id="a2060" d="M1784.3,161.4l-89.4-123.8l-61.7,43.3l89.2,123.7L1784.3,161.4z"/>
<path id="a2020" d="M1450.4,394.5L1362,271.4l-61,42.8l87,123.9L1450.4,394.5z"/>
<path id="a2026" d="M1296.1,317.7c-23.9,16.8-45,31.6-62.4,43.8l88.9,122.3l60.5-42.2L1296.1,317.7z"/>
<path id="a2100" d="M1588.9,297.8l61.8-43.2l-89-123.5l-61.7,43.3L1588.9,297.8z"/>
<path id="a2113" d="M1388.6,584.8l-67.4-92.8l-62.4,43.5l42.1,60v27h131.4c0.1-13,3-25.8,8.4-37.7H1388.6z"/>
<path id="a2042" d="M1924.7,63.9c29.3-19.3,48.5-30.4,54.6-33.9l-38.8-146.8c-28.6,7.4-53,20.2-78.4,37.4c-4.1,2.8-13.6,9.4-27.4,19
	L1924.7,63.9z"/>
<path id="a2101" d="M1453.9,399.4l-62.5,43.6l75.9,108c4.3-3.6,8.8-7.1,13.5-10.2c4.8-3.3,23.2-16,49.9-34.6L1453.9,399.4z"/>
<path id="a2144" d="M1051.8,590.5h111.1l-52.8-157c-18.9,5.9-38.5,9.5-58.3,10.5V590.5z"/>
<path id="a2036" d="M1985,28.4l88.1-2.2v-102c0-26.7-21.6-48.3-48.3-48.3l0,0h-22.8c-18.8-0.2-37.5,1.8-55.8,5.9L1985,28.4z"/>
<polygon id="a2125" points="1218,592.6 1218,593.5 1218,596.5 1218,739.3 1295,739.3 1295,597.5 1267.2,557.9 "/>
<rect id="a2149" x="886" y="596.5" width="78.3" height="142.8"/>
<path id="a2156" d="M962.5,444.5l-76.5,0.1v145.9h76.5V444.5z"/>
<path id="a2043" d="M1787.8,166.2l-61.8,43.2l77.1,106.8l61.8-43.3L1787.8,166.2z"/>
<path id="a2155" d="M880,596.5h-94.8v99.4c0,23.9,19.4,43.3,43.3,43.3H880V596.5z"/>
<path id="a2106" d="M1522.1,344.4l61.9-43.2l-88.8-123.4l-61.7,43.3L1522.1,344.4z"/>
<path id="a2162" d="M880,590.5V444.6l-51.5,0.1c-23.9,0-43.3,19.4-43.3,43.3v102.4H880z"/>
<path id="a2148" d="M968.5,590.5h77.3V444.3c-2.9,0.1-5.7,0.2-8.7,0.2c-12.8,0-38.4,0-68.6,0.1V590.5z"/>
<path id="a2132" d="M1255.4,530.7l62.3-43.5l-88.9-122.3c-23.4,16.4-39.2,27.5-44.5,31.1c-5.3,3.6-10.7,7.1-16.2,10.5L1255.4,530.7z
	"/>
<path id="a2125_1_" d="M2073.2,60.2v-28l-89.6,2.3c-2.4,1.3-11.5,6.5-26.1,15.6l48.3,141.4c13.2-4.5,28.5-9.2,46.3-14.1
	c20.2-5.5,32.6-25.8,28.5-46.3C2075.8,107.8,2073.3,84,2073.2,60.2z"/>
<path id="a2107" d="M1386.5,446.5l-60.4,42.2l65.6,90.2h52.1c5.1-8.8,11.5-16.9,19-23.8L1386.5,446.5z"/>
<path id="a2037" d="M1854.5,119.6l-61.8,43.2l77.1,106.8c31.8-22.3,53.8-37.7,58.5-41c1.1-0.8,2.2-1.5,3.3-2.3L1854.5,119.6z"/>
<path id="a2119" d="M1301,628.5v110.8h99.5c17.6,0,31.8-14.3,31.8-31.8v-78.9H1301z"/>
<path id="a2055" d="M1654.2,259.5l-61.8,43.2l76.9,106.9l61.9-43.2L1654.2,259.5z"/>
<path id="a2061" d="M1587.5,306.1l-61.8,43.2l76.9,106.9l61.9-43.2L1587.5,306.1z"/>
<path id="a2067" d="M1520.7,352.8l-61.8,43.2l76.8,106.8c17.8-12.4,38.9-27.1,61.9-43.2L1520.7,352.8z"/>
<path id="a2031" d="M2000.1,193.4l-47.9-140.1c-16,10-37.4,24-63.3,42.1l-29.6,20.7l77.1,106.8
	C1950,214.3,1969.1,204.4,2000.1,193.4z"/>
<path id="a2114" d="M1455.4,391.1l61.8-43.2l-88.7-123.3l-61.7,43.4L1455.4,391.1z"/>
<path id="a2049" d="M1721,212.9l-61.8,43.2l77,106.9l61.9-43.2L1721,212.9z"/>
<path id="a2048" d="M1885.5,90.5c12.4-8.7,23.8-16.5,34.2-23.3l-89.9-124.1c-16.4,11.5-38,26.6-63.3,44.3l89.5,123.9L1885.5,90.5z"
	/>
<path id="a2054" d="M1761.5-9.1l-61.7,43.3l89.4,123.8l61.8-43.2L1761.5-9.1z"/>
<polygon id="a2050" points="1811.2,583.8 1883.4,556.4 1780.1,415.4 1718.8,457.8 "/>
<polygon id="a2056" points="1729.3,614.9 1805.4,586 1713.9,461.2 1650.1,505.2 "/>
<polygon id="a2062" points="1668.3,672.9 1725.3,633.4 1725.3,619.6 1645.2,508.7 1580.6,553.3 "/>
<polygon id="a2047" points="1888.5,560.9 1813.1,589.5 1813.1,749.3 1888.5,749.3 "/>
<polygon id="a2044" points="1889.2,554.2 1963.1,526.1 1847.8,368.7 1785,412 "/>
<path id="a12715" d="M2196.5,567c-2.6-26.4-5.2-52.5-7.5-75.7l-137.1,11.4l6.9,75C2073.9,576.6,2146,571,2196.5,567z"/>
<polygon id="a2038" points="1852.7,365.3 1968.9,523.9 2042.7,495.9 1915.3,322 "/>
<path id="a12709" d="M2050.8,496.8l137.6-11.5c-3.7-37-6.5-65.7-7.4-75c-0.4-4-1-8-1.7-12l-176.9,32.5L2050.8,496.8z"/>
<polygon id="a2059" points="1807.1,591.8 1731.3,620.6 1731.3,635 1731.3,636.6 1731.3,749.3 1807.1,749.3 "/>
<path id="a2068" d="M1600.2,720.2l63.1-43.8l-87.7-119.7l-43.7,30.2c-6.6,4.6-12.4,10.1-17.3,16.5L1600.2,720.2z"/>
<path d="M1725.3,640.7l-126.4,87.7L1511,608.6c-7.8,12.3-12,26.6-12,41.2v53.8c0,19.5,15.2,35.5,34.7,36.5c47.6,2.3,40.1,9.3,68,9.3
	h123.6L1725.3,640.7z"/>
<path id="a2030" d="M1998.5,425.5l71.7-13.2L2001,264.8c-6.1,2.9-12,6.3-17.6,10.2l-63.2,43.6L1998.5,425.5z"/>
<path id="a12727" d="M2205.2,654.7c-16.9,1.5-43.1,3.7-68.6,5.7c-21.4,1.7-38.3,2.9-50.5,3.6c-7.2,0.4-12.7,0.7-16.5,0.8
	c-1.1,0-2.1,0-3,0l0,0l7.8,84.5h92.6c23.8,0,43.1-19.2,43.1-43c0-1.4-0.1-2.9-0.2-4.3L2205.2,654.7z"/>
<path id="a12721" d="M2204.6,648.7c-2.4-23.8-5-49.9-7.5-75.8l-61.2,4.8l-54.7,4.3l-18,1.4l-3.8,0.3l6.9,75.1
	C2078.3,659.1,2141,654.2,2204.6,648.7z"/>
<polygon id="a2035" points="2060.4,661.8 2060.4,661.8 2053.1,581.3 2053.1,581.3 2053.1,581.3 2045.7,501.1 1980.6,525.9 
	1980.6,749.3 2068.5,749.3 "/>
<path id="a2024" d="M2076.4,411.2l101.8-18.7c-6.2-29.4-19.4-58.8-26.7-73.5l-30-58.8c-9-17.5-29.3-26-48.1-19.9l-57.3,18.5
	c-3.3,1.1-6.5,2.3-9.7,3.6L2076.4,411.2z"/>
<polygon id="a2041" points="1974.6,528.2 1894.5,558.6 1894.5,749.3 1974.6,749.3 "/>
<path id="a2063" d="M1603-143.6l-62,43.4l77.4,109l61.9-43.5L1603-143.6z"/>
<path id="a12634" d="M2215.8,293.7l162.5-68.2l-7.1-74.3l-72.2-14h-9.3l-1.4,1.3v27.5l-116.6,42.5c7.6,19.3,16.1,36.9,25.2,51.1
	C2203.9,270.6,2210.2,282,2215.8,293.7z"/>
<rect id="a2015" x="2198.5" y="-327" width="86.8" height="151.5"/>
<text id="a2015t" transform="matrix(1 0 0 1 2198.5 -326.99)" class="st0 st1">2015</text>
<path id="a12614" d="M2285.3-89h-145.7v76.5h145.7V-89z"/>
<path id="a2057" d="M1669.8-190.4l-62,43.4l77.4,108.9l61.9-43.5L1669.8-190.4z"/>
<path id="a2051" d="M1736.7-237.3l-62,43.4L1752-85.1l61.9-43.6L1736.7-237.3z"/>
<path id="a12622" d="M2139.6,69h145.7V-6.5h-145.7V64C2139.6,65.6,2139.6,67.3,2139.6,69z"/>
<path d="M2119.9-168.9l7.5-6.6h65.1V-200h-78.9l-11.4,17.3C2108.7-179.1,2114.7-174.4,2119.9-168.9z"/>
<path id="a12604" d="M2123.8-164.4c10.2,12.8,15.8,28.7,15.8,45.1V-95h145.7v-74.5h-155.7L2123.8-164.4z"/>
<rect id="a2021" x="2115" y="-327" width="77.5" height="121"/>
<path id="a2027" d="M2109-327h-81.5v135.2h39.5c10.3,0,20.4,2.2,29.8,6.4l12.2-18.5V-327z"/>
<path id="a2145" d="M998.5,247.4H921v130.1h77.5V247.4z"/>
<path id="a12628" d="M2282.3,161.9V136l3-2.8V75h-145.4c2.1,35.7,13.5,85.2,29.7,128L2282.3,161.9z"/>
<path id="a2151" d="M915,377.5V247.4h-80v130.1H915z"/>
<path id="a2069" d="M1536.1-96.7l-62,43.4l77.5,109.1l61.9-43.5L1536.1-96.7z"/>
<path id="a2139" d="M1066.1,232.8l-20.9,14.6h-40.8v130c64.1-0.1,106-13.8,142.9-37.5L1066.1,232.8z"/>
<path id="a2133" d="M1136.7,183.3l-65.6,46l81.4,107.3c1.3-0.9,2.7-1.8,4-2.8l58.1-40.8L1136.7,183.3z"/>
<rect id="a2052" x="1851" y="816.5" width="78" height="163"/>
<path id="a2127" d="M1202.6,137.1l-61.1,42.8l77.9,109.6l61-42.9L1202.6,137.1z"/>
<path id="a2115" d="M1335.5,43.9l-62,43.4l77.8,109.4l61.9-43.5L1335.5,43.9z"/>
<path id="a2109" d="M1402.4-2.9l-62,43.4l77.7,109.3l61.9-43.5L1402.4-2.9z"/>
<path id="a2121" d="M1268.6,90.8l-61.1,42.8l77.8,109.5l61-42.9L1268.6,90.8z"/>
<path id="a2103" d="M1469.2-49.8l-62,43.4l77.6,109.2l61.9-43.5L1469.2-49.8z"/>
<rect id="a2020_1_" x="2268" y="808.5" width="80.5" height="171"/>
<rect id="a2034" x="2020" y="816.5" width="74" height="163"/>
<path id="a2026_1_" d="M2247.3,808.5c-10,5.3-21.1,8-32.4,8H2183v163h79v-171H2247.3z"/>
<rect id="a2165" x="666" y="247.4" width="79.5" height="120.1"/>
<rect id="a2032" x="2100" y="816.5" width="77" height="163"/>
<polygon id="a2014" points="2429.8,764.4 2354.5,769.4 2354.5,979.5 2450.4,979.5 "/>
<path id="a2058" d="M1845,979.5v-163h-54.6c-24.7,0-44.7,20-44.7,44.7v34.1l12.8,30.8v9c0,24.5,19.9,44.4,44.4,44.4l0,0L1845,979.5z
	"/>
<path id="a2173" d="M660,395.2V247.4H539v118.8c0,10.5,3.6,20.7,10.1,29L660,395.2z"/>
<path id="a2157" d="M829,247.4h-77.5v122l16.7,20.8c9.2-6.8,21.9-12.8,41.5-12.8H829V247.4z"/>
<path d="M723.1,401.2H554.8c8.6,7.7,19.7,11.9,31.2,11.9h5.9c17.1,0,26.5,13.7,46.5,13.7h71.6c13.1,0,21.8-3,28.1-7.2L723.1,401.2z"
	/>
<path d="M747.1,373.5H666v21.7h59.9l16.8,20.7c5.6-5,9.2-10.7,13.6-15.1c2.2-2.2,4.5-4.5,7.2-6.8L747.1,373.5z"/>
<path id="a12734" d="M2422.1,683.3l-143.3,9.5c3,28.4,5,47.1,5,47.1c1,9.5,0,19.2-2.9,28.3l148.4-9.8L2422.1,683.3z"/>
<path id="a12728" d="M2414.3,601.6l-144.1,10.2c2.9,27.6,5.7,53.7,8,75.1l143.4-9.5L2414.3,601.6z"/>
<path d="M2348.5,769.8l-69.9,4.6c-4.8,11.1-12.4,20.8-22,28.1h91.9L2348.5,769.8z"/>
<path id="a12722" d="M2413.7,595.6l-7.3-75.8l-144.9,10.8c2.6,24.4,5.3,50.3,8,75.1L2413.7,595.6z"/>
<path id="a12716" d="M2405.9,513.9l-7.3-75.8L2253,449.6c2.1,20.3,4.9,46.6,7.9,75.1L2405.9,513.9z"/>
<path id="a12710" d="M2389.5,342.9l-146.8,30.7c3.1,14.4,5.4,28.9,6.9,43.5c0.6,6,1.6,15.1,2.8,26.5l145.6-11.5L2389.5,342.9z"/>
<path id="a12704" d="M2388.9,336.9l-10.1-105.1l-160.6,67.3c9.9,22,17.7,45,23.1,68.5L2388.9,336.9z"/>
<path id="a2045" d="M1873.2-164.5l-56.8-128.8l-74.9,52.5l77.2,108.6l10.2-7.2C1842.9-149.1,1857.7-157.6,1873.2-164.5z"/>
<path id="a2039" d="M1821.5-296.8l57.3,129.9c21.1-8.8,43.1-15.1,65.6-19L1919.5-327h-54.8L1821.5-296.8z"/>
<path id="a2033" d="M2015.5-191.8h6V-327h-95.9l24.7,140.1C1971.8-190.3,1993.7-191.9,2015.5-191.8z"/>
<rect id="a2046" x="1935" y="816.5" width="79" height="163"/>
<rect id="a2122" x="1232.6" y="810.3" width="75.6" height="169.2"/>
<rect id="a2118" x="1314.2" y="810.3" width="79.6" height="169.2"/>
<rect id="a2128" x="1152" y="810.3" width="74.6" height="169.2"/>
<rect id="a2140" x="983.8" y="810.3" width="76.6" height="169.2"/>
<rect id="a2146" x="900.3" y="810.3" width="77.6" height="169.2"/>
<rect id="a2150" x="816.7" y="810.3" width="77.6" height="169.2"/>
<rect id="a2134" x="1066.4" y="810.3" width="79.6" height="169.2"/>
<rect id="a2106_1_" x="1477.4" y="810.3" width="76.6" height="169.2"/>
<rect id="a2112" x="1399.8" y="810.3" width="71.6" height="169.2"/>
<path id="a12717" d="M716.7,706.7H546.3v75h152.3l26.3-13.2c-5.5-10.7-8.3-22.6-8.3-34.6L716.7,706.7z"/>
<rect id="a12711" x="546.3" y="624" width="170.3" height="76.7"/>
<path id="a12705" d="M716.7,618v-60.4c0-25.1-20.4-45.5-45.5-45.5c0,0,0,0,0,0h-28.6c-23.5,0-29.8,12-50.4,12h-2.7
	c-23.8,0-43.1,19.3-43.1,43.1l0,0V618H716.7z"/>
<path id="a12729" d="M546.3,870.3v48.3c0,33.7,27.3,60.9,60.9,60.9c0,0,0,0,0,0H725V870.3H546.3z"/>
<path id="a2102" d="M1560,979.5h47c21.8,0,39.5-17.7,39.5-39.5v-8.3c0-16.4,12.9-21.9,12.9-49.9v-19.2c0-25.5-20.7-46.2-46.2-46.2
	h-2.4c-25.4,0-28-6.1-49.1-6.1h-1.7V979.5z"/>
<path id="a2154" d="M731,804v175.5h79.7V810.3h-17.5c-18,0-35.5-6.4-49.3-18L731,804z"/>
<path d="M702.3,864.3H725v-63l14.4-13.1c-4.4-4.4-8.3-9.3-11.6-14.6l-25.5,12.8L702.3,864.3z"/>
<rect id="a12723" x="546.3" y="787.7" width="150" height="76.7"/>
<text transform="matrix(1 0 0 1 583.4683 360)" class="st2 st3 st4">2173</text>
<text transform="matrix(1 0 0 1 685.218 360)"  class="st2 st3 st4">2165</text>
<text transform="matrix(1 0 0 1 769.7181 360)" class="st2 st3 st4">2157</text>
<text transform="matrix(1 0 0 1 854.4681 360)" class="st2 st3 st4">2151</text>
<text transform="matrix(1 0 0 1 939.2184 360)" class="st2 st3 st4">2145</text>
<text transform="matrix(1 0 0 1 1042.9204 342.75)" class="st2 st3 st4">2139</text>
</svg>
