<svg id="Neighborhood_Map_Outlines" data-name="Neighborhood Map Outlines" xmlns="http://www.w3.org/2000/svg" viewBox="0 0 2000 1500"><title>Neighborhood Map</title>
    <rect id="a2137" x="557.75" y="1010.5" width="78.75" height="142.78"/>
    <rect id="a2143" x="474.25" y="1010.5" width="77.5" height="142.78"/>
    <rect id="a2131" x="642.5" y="1010.5" width="73.5" height="142.78"/>
    <path id="a2066" d="M1159.65,665.19,1221.49,622l-89.2-123.68-61.67,43.32Z"/>
    <path id="a2138" d="M716,1004.5v-1.06L767.74,967,666.93,823.61a261,261,0,0,1-47.28,22l53.5,158.93Z"/>
    <path id="a2060" d="M1288.25,575.36l-89.36-123.79-61.68,43.3,89.21,123.69Z"/>
    <path id="a2020" d="M954.44,808.5,866,685.4l-61,42.84,87,123.87Z"/>
    <path id="a2026" d="M800.07,731.69c-23.85,16.75-45,31.57-62.35,43.75l88.88,122.32,60.46-42.21Z"/>
    <path id="a2100" d="M1092.89,711.82l61.84-43.19-89-123.54L1004,588.41Z"/>
    <path id="a2113" d="M892.64,998.83,825.21,906l-62.37,43.55,42.15,60v26.95H936.35a92.46,92.46,0,0,1,8.4-37.67Z"/>
    <path id="a2042" d="M1428.69,477.89c29.25-19.26,48.52-30.44,54.56-33.87L1444.5,297.23c-28.55,7.39-53,20.19-78.4,37.39-4.11,2.79-13.62,9.39-27.43,19Z"/>
    <path id="a2101" d="M957.94,813.38,895.43,857l75.86,108a154.89,154.89,0,0,1,13.47-10.21c4.83-3.28,23.21-16,49.94-34.63Z"/>
    <path id="a2144" d="M555.75,1004.5H666.82L614,847.45A236.59,236.59,0,0,1,555.75,858Z"/>
    <path id="a2036" d="M1489,442.44l88.14-2.23v-102a48.27,48.27,0,0,0-48.27-48.27h-22.76a248.31,248.31,0,0,0-55.83,5.88Z"/>
    <polygon id="a2125" points="722 1006.56 722 1007.5 722 1010.5 722 1153.28 799 1153.28 799 1011.45 771.19 971.89 722 1006.56"/>
    <rect id="a2149" x="390" y="1010.5" width="78.25" height="142.78"/>
    <path id="a2156" d="M466.5,858.49l-76.5.12V1004.5h76.5Z"/>
    <path id="a2043" d="M1291.76,580.23l-61.84,43.2L1307,730.27,1368.85,687Z"/>
    <path id="a2155" d="M384,1010.5H289.25v99.43a43.35,43.35,0,0,0,43.35,43.35H384Z"/>
    <path id="a2106" d="M1026.12,758.44,1088,715.26l-88.84-123.4-61.67,43.32Z"/>
    <path id="a2162" d="M384,1004.5V858.62l-51.48.09a43.35,43.35,0,0,0-43.27,43.35V1004.5Z"/>
    <path id="a2148" d="M472.5,1004.5h77.25V858.25c-2.86.09-5.74.16-8.68.16-12.84,0-38.43,0-68.57.07Z"/>
    <path id="a2132" d="M759.39,944.69l62.29-43.49L732.81,778.89c-23.42,16.42-39.22,27.46-44.48,31.08s-10.67,7.14-16.24,10.55Z"/>
    <path id="a2125" d="M1577.18,474.2v-28l-89.62,2.27c-2.39,1.34-11.47,6.49-26.11,15.56l48.34,141.43c13.24-4.52,28.53-9.22,46.31-14.09a39.82,39.82,0,0,0,28.5-46.29A365,365,0,0,1,1577.18,474.2Z"/>
    <path id="a2107" d="M890.51,860.46l-60.38,42.16,65.56,90.22h52.14a99.92,99.92,0,0,1,19-23.77Z"/>
    <path id="a2037" d="M1358.51,533.58l-61.83,43.21,77.09,106.79c31.84-22.28,53.79-37.67,58.5-41q1.59-1.14,3.3-2.31Z"/>
    <path id="a2119" d="M805,1042.5v110.78h99.48a31.84,31.84,0,0,0,31.84-31.84V1042.5Z"/>
    <path id="a2055" d="M1158.24,673.5l-61.85,43.19,76.94,106.87,61.91-43.2Z"/>
    <path id="a2061" d="M1091.47,720.13l-61.85,43.19,76.86,106.86L1168.41,827Z"/>
    <path id="a2067" d="M1024.71,766.75l-61.85,43.19,76.77,106.82c17.79-12.38,38.89-27.08,61.95-43.15Z"/>
    <path id="a2031" d="M1504.12,607.44l-47.89-140.14c-16,10-37.44,24-63.26,42.15l-29.55,20.68,77.14,106.76C1454,628.26,1473.08,618.4,1504.12,607.44Z"/>
    <path id="a2114" d="M959.36,805.07l61.85-43.19L932.55,638.63,870.88,682Z"/>
    <path id="a2049" d="M1225,626.87l-61.84,43.2,77,106.87,61.89-43.22Z"/>
    <path id="a2048" d="M1389.53,504.54c12.43-8.72,23.85-16.49,34.16-23.34l-89.95-124.13c-16.42,11.46-38,26.58-63.33,44.32l89.5,123.87Z"/>
    <path id="a2054" d="M1265.49,404.85l-61.7,43.28,89.37,123.8L1355,528.71Z"/>
    <polygon id="a2050" points="1315.2 997.84 1387.38 970.4 1284.09 829.42 1222.83 871.75 1315.2 997.84"/>
    <polygon id="a2056" points="1233.34 1028.95 1309.38 1000.05 1217.89 875.16 1154.11 919.24 1233.34 1028.95"/>
    <polygon id="a2062" points="1172.27 1086.95 1229.25 1047.43 1229.25 1033.55 1149.17 922.65 1084.6 967.28 1172.27 1086.95"/>
    <polygon id="a2047" points="1392.47 974.89 1317.13 1003.52 1317.13 1163.33 1392.47 1163.33 1392.47 974.89"/>
    <polygon id="a2044" points="1393.2 968.19 1467.09 940.1 1351.75 782.66 1289.03 826 1393.2 968.19"/>
    <path id="a12715" d="M1700.51,981c-2.63-26.43-5.22-52.51-7.52-75.68l-137.11,11.44,6.88,75C1577.91,990.61,1650,984.95,1700.51,981Z"/>
    <polygon id="a2038" points="1356.69 779.25 1472.91 937.89 1546.66 909.86 1419.29 735.99 1356.69 779.25"/>
    <path id="a12709" d="M1554.79,910.8l137.61-11.48c-3.67-37-6.51-65.69-7.4-75-.38-4-1-8-1.66-12l-176.86,32.53Z"/>
    <polygon id="a2059" points="1311.13 1005.8 1235.25 1034.64 1235.25 1049 1235.25 1050.57 1235.25 1163.33 1311.13 1163.33 1311.13 1005.8"/>
    <path id="a2068" d="M1104.22,1134.17l63.12-43.79-87.68-119.69L1036,1000.88a76.35,76.35,0,0,0-17.3,16.51Z"/>
    <path class="unassigned" d="M1229.25,1054.73l-126.42,87.7L1015,1022.59a76.39,76.39,0,0,0-12,41.16v53.76a36.5,36.5,0,0,0,34.69,36.49c47.59,2.29,40.07,9.34,68,9.34h123.58Z"/>
    <path id="a2030" d="M1502.54,839.48l71.71-13.19L1505,678.78a125.94,125.94,0,0,0-17.63,10.16l-63.15,43.64Z"/>
    <path id="a12727" d="M1709.24,1068.7c-16.94,1.46-43.05,3.68-68.55,5.68-21.36,1.68-38.34,2.91-50.47,3.64-7.16.43-12.71.7-16.5.79-1.09,0-2.08,0-3,0h0l7.75,84.48h92.61A43.06,43.06,0,0,0,1714,1116Z"/>
    <path id="a12721" d="M1708.65,1062.73c-2.37-23.84-5-49.89-7.54-75.79l-61.22,4.81L1585.15,996l-18,1.4-3.81.29,6.89,75.12C1582.32,1073.09,1645,1068.23,1708.65,1062.73Z"/>
    <polygon id="a2035" points="1564.43 1075.76 1564.43 1075.76 1557.05 995.28 1557.05 995.27 1557.05 995.27 1549.7 915.12 1484.55 939.89 1484.55 1163.33 1572.46 1163.33 1564.43 1075.76"/>
    <path id="a2024" d="M1580.35,825.17l101.85-18.73c-6.17-29.39-19.36-58.79-26.65-73.53l-30-58.78a40.12,40.12,0,0,0-48.08-19.93l-57.26,18.53c-3.3,1.07-6.54,2.28-9.73,3.61Z"/>
    <polygon id="a2041" points="1478.55 942.17 1398.47 972.61 1398.47 1163.33 1478.55 1163.33 1478.55 942.17"/>
    <path id="a2063" d="M1107,270.44l-62,43.43,77.45,109,61.88-43.54Z"/>
    <path id="a12634" d="M1719.75,707.74l162.51-68.15-7.11-74.29-72.16-14h-9.29l-1.4,1.31V580.1l-116.58,42.5c7.58,19.25,16.11,36.93,25.17,51.07A311.62,311.62,0,0,1,1719.75,707.74Z"/>
    <rect id="a2015" x="1702.5" y="87.01" width="86.8" height="151.49"/>
    <path id="a12614" d="M1789.3,325H1643.57v76.5H1789.3Z"/>
    <path id="a2057" d="M1173.85,223.56l-62,43.43,77.37,108.86,61.88-43.54Z"/>
    <path id="a2051" d="M1240.72,176.68l-62,43.43L1256,328.85l61.87-43.56Z"/>
    <path id="a12622" d="M1643.64,483H1789.3V407.5H1643.57V478Q1643.57,480.45,1643.64,483Z"/>
    <path class="unassigned" d="M1623.87,245.09l7.5-6.59h65.13V214h-78.89l-11.45,17.29A72.84,72.84,0,0,1,1623.87,245.09Z"/>
    <path id="a12604" d="M1627.79,249.63a72.25,72.25,0,0,1,15.77,45.15V319H1789.3V244.5H1633.63Z"/>
    <rect id="a2021" x="1619" y="87.01" width="77.5" height="120.99"/>
    <path id="a2027" d="M1613,87h-81.5V222.2H1571a72.28,72.28,0,0,1,29.77,6.39L1613,210.1Z"/>
    <path id="a2145" d="M502.5,661.41H425V791.46h77.5Z"/>
    <path id="a12628" d="M1786.3,575.9V550l3-2.79V489H1643.9c2.06,35.7,13.46,85.19,29.66,128Z"/>
    <path id="a2151" d="M419,791.46V661.41H339V791.46Z"/>
    <path id="a2069" d="M1040.11,317.31l-62,43.43,77.53,109.09,61.88-43.54Z"/>
    <path id="a2139" d="M570.13,646.77l-20.88,14.64H508.5v130c64.07-.13,106-13.75,142.94-37.55Z"/>
    <path id="a2133" d="M640.65,597.33l-65.6,46L656.46,750.6q2-1.37,4-2.77L718.58,707Z"/>
    <rect id="a2052" x="1355" y="1230.52" width="78" height="162.99"/>
    <path id="a2127" d="M706.64,551.08l-61.07,42.81,77.92,109.63,61-42.91Z"/>
    <path id="a2115" d="M839.5,457.94l-62,43.43,77.77,109.42,61.89-43.53Z"/>
    <path id="a2109" d="M906.37,411.07l-62,43.43L922.1,563.81,984,520.27Z"/>
    <path id="a2121" d="M772.63,504.82l-61.07,42.81L789.4,657.15l61-42.91Z"/>
    <path id="a2103" d="M973.24,364.19l-62,43.43,77.61,109.2,61.88-43.54Z"/>
    <rect id="a2020" x="1772" y="1222.5" width="80.5" height="171.02"/>
    <rect id="a2034" x="1524" y="1230.52" width="74" height="162.99"/>
    <path id="a2026" d="M1751.25,1222.5a68.92,68.92,0,0,1-32.4,8H1687v163h79v-171Z"/>
    <rect id="a2165" x="170" y="661.41" width="79.5" height="120.09"/>
    <rect id="a2032" x="1604" y="1230.52" width="77" height="162.99"/>
    <polygon id="a2014" points="1933.84 1178.37 1858.5 1183.37 1858.5 1393.52 1954.44 1393.52 1933.84 1178.37"/>
    <path id="a2058" d="M1349,1393.52v-163h-54.57a44.73,44.73,0,0,0-44.73,44.73v34.13l12.83,30.8v9a44.38,44.38,0,0,0,44.38,44.38Z"/>
    <path id="a2173" d="M164,809.24V661.41H43V780.19a46.7,46.7,0,0,0,10.09,29Z"/>
    <path id="a2157" d="M333,661.41H255.5v122l16.7,20.8c9.19-6.83,21.92-12.78,41.48-12.78H333Z"/>
    <path class="unassigned" d="M227.07,815.24H58.76a46.73,46.73,0,0,0,31.17,11.87h5.85c17.11,0,26.52,13.69,46.49,13.69h71.59c13.12,0,21.75-3,28.11-7.21Z"/>
    <path class="unassigned" d="M251.06,787.5H170v21.74h59.93l16.78,20.68c5.55-5,9.24-10.69,13.63-15.08,2.15-2.15,4.5-4.49,7.19-6.83Z"/>
    <path id="a12734" d="M1926.08,1097.33l-143.32,9.5c3,28.45,5,47.12,5,47.12a69,69,0,0,1-2.87,28.29l148.36-9.84Z"/>
    <path id="a12728" d="M1918.26,1015.6l-144.1,10.16c2.93,27.58,5.7,53.71,8,75.1l143.38-9.51Z"/>
    <path class="unassigned" d="M1852.5,1183.76l-69.9,4.63a69.68,69.68,0,0,1-22,28.1h91.86Z"/>
    <path id="a12722" d="M1917.69,1009.63l-7.25-75.77-144.86,10.83c2.58,24.44,5.32,50.25,8,75.1Z"/>
    <path id="a12716" d="M1909.86,927.89l-7.25-75.78L1757,863.62c2.12,20.28,4.9,46.6,7.91,75.1Z"/>
    <path id="a12710" d="M1893.5,756.93l-146.78,30.65a393,393,0,0,1,6.94,43.53c.61,5.95,1.55,15.08,2.75,26.55L1902,846.14Z"/>
    <path id="a12704" d="M1892.92,750.92l-10.06-105.08-160.58,67.34a368.71,368.71,0,0,1,23.11,68.54Z"/>
    <path id="a2045" d="M1377.24,249.52l-56.75-128.76-74.86,52.48,77.19,108.6,10.16-7.17A262.56,262.56,0,0,1,1377.24,249.52Z"/>
    <path id="a2039" d="M1325.5,117.25l57.25,129.88a304.59,304.59,0,0,1,65.58-19L1423.48,87h-54.85Z"/>
    <path id="a2033" d="M1519.5,222.2h6V87h-95.93l24.67,140.08A415.39,415.39,0,0,1,1519.5,222.2Z"/>
    <rect id="a2046" x="1439" y="1230.52" width="79" height="162.99"/>
    <rect id="a2122" x="736.63" y="1224.33" width="75.59" height="169.19"/>
    <rect id="a2118" x="818.22" y="1224.33" width="79.59" height="169.19"/>
    <rect id="a2128" x="656.04" y="1224.33" width="74.59" height="169.19"/>
    <rect id="a2140" x="487.85" y="1224.33" width="76.59" height="169.19"/>
    <rect id="a2146" x="404.26" y="1224.33" width="77.59" height="169.19"/>
    <rect id="a2150" x="320.67" y="1224.33" width="77.59" height="169.19"/>
    <rect id="a2134" x="570.44" y="1224.33" width="79.59" height="169.19"/>
    <rect id="a2106" x="981.41" y="1224.33" width="76.59" height="169.19"/>
    <rect id="a2112" x="903.81" y="1224.33" width="71.59" height="169.19"/>
    <path id="a12717" d="M220.67,1120.67H50.33v75H202.62l26.32-13.24a76.14,76.14,0,0,1-8.28-34.59Z"/>
    <rect id="a12711" x="50.33" y="1038" width="170.33" height="76.67"/>
    <path id="a12705" d="M220.67,1032V971.57a45.46,45.46,0,0,0-45.46-45.46H146.57c-23.5,0-29.78,12-50.39,12H93.46a43.13,43.13,0,0,0-43.13,43.13V1032Z"/>
    <path id="a12729" d="M50.33,1284.33v48.26a60.93,60.93,0,0,0,60.93,60.93H229V1284.33Z"/>
    <path id="a2102" d="M1064,1393.52h47A39.52,39.52,0,0,0,1150.5,1354v-8.28c0-16.42,12.88-21.89,12.88-49.91v-19.17a46.22,46.22,0,0,0-46.22-46.22h-2.4c-25.44,0-28-6.08-49.09-6.08H1064Z"/>
    <path id="a2154" d="M235,1218v175.52h79.67V1224.33h-17.5a76.18,76.18,0,0,1-49.28-18Z"/>
    <path class="unassigned" d="M206.33,1278.33H229v-63l14.43-13.07a76.82,76.82,0,0,1-11.57-14.59l-25.52,12.84Z"/>
    <rect id="a12723" x="50.33" y="1201.67" width="150" height="76.67"/>
</svg>